<svg width="100%" viewBox="0 0 680 820" xmlns="http://www.w3.org/2000/svg" font-family="system-ui, -apple-system, sans-serif">
<defs>
  <marker id="arrow" viewBox="0 0 10 10" refX="8" refY="5" markerWidth="6" markerHeight="6" orient="auto-start-reverse">
    <path d="M2 1L8 5L2 9" fill="none" stroke="context-stroke" stroke-width="1.5" stroke-linecap="round" stroke-linejoin="round"/>
  </marker>
  <style>
    text { font-family: system-ui, -apple-system, sans-serif; fill: #1a1410; }
    .th  { font-size: 13px; font-weight: 600; }
    .ts  { font-size: 11px; font-weight: 400; fill: #3d3530; }
    .label { font-size: 11px; font-weight: 500; fill: #8a7f78; }

    /* teal — phase boxes */
    .c-teal rect  { fill: #e1f5ee; stroke: #0f6e56; }
    .c-teal .th   { fill: #085041; }
    .c-teal .ts   { fill: #0f6e56; }

    /* coral — recommendation */
    .c-coral rect { fill: #faece7; stroke: #993c1d; }
    .c-coral .th  { fill: #4a1b0c; }
    .c-coral .ts  { fill: #993c1d; }

    /* purple — output */
    .c-purple rect { fill: #eeedfe; stroke: #534ab7; }
    .c-purple .th  { fill: #26215c; }
    .c-purple .ts  { fill: #534ab7; }

    /* gray — neutral */
    .c-gray rect  { fill: #f1efe8; stroke: #888780; }
    .c-gray .th   { fill: #2c2c2a; }
    .c-gray .ts   { fill: #5f5e5a; }

    rect { stroke-width: 0.5; }
    .arr { stroke: #888780; stroke-width: 0.8; fill: none; }
    .ref { stroke: #b4b2a9; stroke-width: 0.5; stroke-dasharray: 3 3; fill: none; }
    .div { stroke: #b4b2a9; stroke-width: 0.5; opacity: 0.4; }
  </style>
</defs>

<!-- ── TITLE ── -->
<text class="th" x="340" y="32" text-anchor="middle" font-size="15" fill="#1a1410">skill-paper-discovery · 架构与路线图</text>

<!-- ══ LAYER 0: USER INPUT ══ -->
<text class="label" x="40" y="68">用户输入</text>
<line x1="40" y1="74" x2="640" y2="74" class="div"/>

<g class="c-gray"><rect x="60"  y="84" width="120" height="44" rx="4"/><text class="ts" x="120" y="111" text-anchor="middle">模糊兴趣</text></g>
<g class="c-gray"><rect x="210" y="84" width="120" height="44" rx="4"/><text class="ts" x="270" y="111" text-anchor="middle">具体问题</text></g>
<g class="c-gray"><rect x="360" y="84" width="120" height="44" rx="4"/><text class="ts" x="420" y="111" text-anchor="middle">产品想法</text></g>
<g class="c-gray"><rect x="510" y="84" width="120" height="44" rx="4"/><text class="ts" x="570" y="111" text-anchor="middle">已知论文</text></g>

<line x1="120" y1="128" x2="310" y2="172" class="arr" marker-end="url(#arrow)"/>
<line x1="270" y1="128" x2="330" y2="172" class="arr" marker-end="url(#arrow)"/>
<line x1="420" y1="128" x2="360" y2="172" class="arr" marker-end="url(#arrow)"/>
<line x1="570" y1="128" x2="390" y2="172" class="arr" marker-end="url(#arrow)"/>

<!-- ══ LAYER 1: PHASE 1 ══ -->
<text class="label" x="40" y="166">Phase 1 · 需求澄清</text>
<line x1="40" y1="172" x2="640" y2="172" class="div"/>

<g class="c-teal"><rect x="220" y="182" width="240" height="56" rx="4"/><text class="th" x="340" y="204" text-anchor="middle">意图识别</text><text class="ts" x="340" y="224" text-anchor="middle">入门 / 问题 / 教学 / 产品 / 验证 / 延伸</text></g>

<line x1="460" y1="210" x2="530" y2="210" class="ref"/>
<g class="c-gray"><rect x="530" y="192" width="120" height="36" rx="4"/><text class="ts" x="590" y="214" text-anchor="middle">intent_types.md</text></g>

<line x1="340" y1="238" x2="340" y2="272" class="arr" marker-end="url(#arrow)"/>

<!-- ══ LAYER 2: PHASE 2 ══ -->
<text class="label" x="40" y="266">Phase 2 · 问题翻译</text>
<line x1="40" y1="272" x2="640" y2="272" class="div"/>

<g class="c-teal"><rect x="60"  y="282" width="260" height="56" rx="4"/><text class="th" x="190" y="304" text-anchor="middle">研究问题翻译</text><text class="ts" x="190" y="324" text-anchor="middle">用户语言 → 学术关键词</text></g>
<g class="c-teal"><rect x="360" y="282" width="260" height="56" rx="4"/><text class="th" x="490" y="304" text-anchor="middle">搜索入口生成</text><text class="ts" x="490" y="324" text-anchor="middle">Google Scholar 链接</text></g>

<line x1="190" y1="338" x2="130" y2="372" class="ref"/>
<g class="c-gray"><rect x="40"  y="372" width="180" height="32" rx="4"/><text class="ts" x="130" y="392" text-anchor="middle">query_translation_patterns.md</text></g>

<line x1="490" y1="338" x2="530" y2="372" class="ref"/>
<g class="c-gray"><rect x="460" y="372" width="170" height="32" rx="4"/><text class="ts" x="545" y="392" text-anchor="middle">venues_and_sources.md</text></g>

<line x1="190" y1="338" x2="320" y2="432" class="arr" marker-end="url(#arrow)"/>
<line x1="490" y1="338" x2="360" y2="432" class="arr" marker-end="url(#arrow)"/>

<!-- ══ LAYER 3: PHASE 3 ══ -->
<text class="label" x="40" y="426">Phase 3 · 精准推荐</text>
<line x1="40" y1="432" x2="640" y2="432" class="div"/>

<g class="c-coral"><rect x="60"  y="442" width="175" height="56" rx="4"/><text class="th" x="147" y="464" text-anchor="middle">推荐评分</text><text class="ts" x="147" y="484" text-anchor="middle">5维框架，最多3篇</text></g>
<g class="c-coral"><rect x="252" y="442" width="175" height="56" rx="4"/><text class="th" x="339" y="464" text-anchor="middle">推荐理由</text><text class="ts" x="339" y="484" text-anchor="middle">为什么是这篇</text></g>
<g class="c-coral"><rect x="444" y="442" width="175" height="56" rx="4"/><text class="th" x="531" y="464" text-anchor="middle">阅读路径</text><text class="ts" x="531" y="484" text-anchor="middle">A → B → C 有序进入</text></g>

<line x1="147" y1="498" x2="130" y2="532" class="ref"/>
<g class="c-gray"><rect x="40"  y="532" width="180" height="32" rx="4"/><text class="ts" x="130" y="552" text-anchor="middle">recommendation_rubric.md</text></g>

<line x1="339" y1="498" x2="340" y2="532" class="ref"/>
<g class="c-gray"><rect x="250" y="532" width="180" height="32" rx="4"/><text class="ts" x="340" y="552" text-anchor="middle">paper_type_lens.md</text></g>

<line x1="340" y1="498" x2="340" y2="590" class="arr" marker-end="url(#arrow)"/>

<!-- ══ LAYER 4: OUTPUTS ══ -->
<text class="label" x="40" y="584">输出层</text>
<line x1="40" y1="590" x2="640" y2="590" class="div"/>

<g class="c-purple"><rect x="60"  y="600" width="175" height="44" rx="4"/><text class="th" x="147" y="627" text-anchor="middle">Paper Discovery Canvas</text></g>
<g class="c-purple"><rect x="252" y="600" width="175" height="44" rx="4"/><text class="th" x="339" y="627" text-anchor="middle">scripts/ PDF 获取</text></g>
<g class="c-purple"><rect x="444" y="600" width="175" height="44" rx="4"/><text class="th" x="531" y="627" text-anchor="middle">Claude Code 工作流</text></g>

<!-- ══ LAYER 5: ECOSYSTEM ══ -->
<line x1="340" y1="644" x2="340" y2="678" class="arr" marker-end="url(#arrow)"/>
<text class="label" x="40" y="672">生态下游</text>
<line x1="40" y1="678" x2="640" y2="678" class="div"/>

<g class="c-gray"><rect x="60"  y="688" width="160" height="44" rx="4"/><text class="th" x="140" y="706" text-anchor="middle">skill-paper-sensemaking</text><text class="ts" x="140" y="722" text-anchor="middle">深度意义建构</text></g>
<g class="c-gray"><rect x="240" y="688" width="200" height="44" rx="4"/><text class="th" x="340" y="706" text-anchor="middle">skill-visual-knowledge-design</text><text class="ts" x="340" y="722" text-anchor="middle">认知结构可视化</text></g>
<g class="c-gray"><rect x="460" y="688" width="160" height="44" rx="4"/><text class="th" x="540" y="706" text-anchor="middle">skill-paper-to-prd</text><text class="ts" x="540" y="722" text-anchor="middle">研究转产品设计</text></g>

<line x1="340" y1="644" x2="140" y2="688" class="arr" marker-end="url(#arrow)"/>
<line x1="340" y1="644" x2="340" y2="688" class="arr" marker-end="url(#arrow)"/>
<line x1="340" y1="644" x2="540" y2="688" class="arr" marker-end="url(#arrow)"/>

<!-- ── LEGEND ── -->
<rect x="40"  y="758" width="10" height="10" rx="2" fill="#5dcaa5" opacity="0.7"/>
<text class="ts" x="56"  y="768">三阶段工作流</text>
<rect x="160" y="758" width="10" height="10" rx="2" fill="#f0997b" opacity="0.7"/>
<text class="ts" x="176" y="768">推荐输出</text>
<rect x="260" y="758" width="10" height="10" rx="2" fill="#b4b2a9" opacity="0.7"/>
<text class="ts" x="276" y="768">参考文件 (references/)</text>
<rect x="450" y="758" width="10" height="10" rx="2" fill="#afa9ec" opacity="0.7"/>
<text class="ts" x="466" y="768">输出 / 生态下游</text>

</svg>
